<?xml version="1.0" encoding="UTF-8" standalone="no" ?>
<!DOCTYPE svg PUBLIC "-//W3C//DTD SVG 1.1//EN" "http://www.w3.org/Graphics/SVG/1.1/DTD/svg11.dtd">
<svg xmlns="http://www.w3.org/2000/svg" xmlns:xlink="http://www.w3.org/1999/xlink" version="1.1" width="800" height="800" viewBox="0 0 800 800" xml:space="preserve">
<desc>Created with Fabric.js 5.3.0</desc>
<defs>
</defs>
<g transform="matrix(2.4242424242 0 0 2.4242424242 400 407.7545863257)" id="UarMFNKkz6KtnUg88opqq"  >
<path style="stroke: none; stroke-width: 1; stroke-dasharray: none; stroke-linecap: butt; stroke-dashoffset: 0; stroke-linejoin: miter; stroke-miterlimit: 4; fill: rgb(99,99,99); fill-rule: nonzero; opacity: 1;"  transform=" translate(0, 0)" d="M -100 165 L 100 165 C 108.284 165 115 158.284 115 150 L 115 -20 C 115 -28.284 108.284 -35 100 -35 L 85 -35 L 85 -80 C 85 -126.869 46.869 -165 0 -165 C -46.869 -165 -85 -126.869 -85 -80 L -85 -35 L -100 -35 C -108.284 -35 -115 -28.284 -115 -20 L -115 150 C -115 158.284 -108.284 165 -100 165 z M 15 69.986 L 15 90 C 15 98.284 8.283999999999999 105 0 105 C -8.284 105 -15 98.284 -15 90 L -15 69.986 C -21.067999999999998 65.421 -25 58.162000000000006 -25 50 C -25 36.215 -13.785 25 0 25 C 13.785 25 25 36.215 25 50 C 25 58.162 21.068 65.42099999999999 15 69.986 z M -55 -80 C -55 -110.327 -30.327 -135 0 -135 C 30.327 -135 55 -110.327 55 -80 L 85 -80 L 85 -35 L -55 -35 z" stroke-linecap="round" />
</g>
</svg>