<?xml version="1.0" encoding="utf-8"?>
<svg class="svg-icon" style="width: 1em; height: 1em;vertical-align: middle;fill: currentColor;overflow: hidden;" viewBox="0 0 1024 1024" version="1.1" xmlns="http://www.w3.org/2000/svg">
  <path d="M 21.291 1024.043 C 12.669 1024.041 4.896 1018.85 1.591 1010.887 C -1.713 1002.923 0.1 993.754 6.187 987.648 L 392.747 601.045 L 246.016 454.315 C 221.055 429.313 221.055 388.82 246.016 363.819 L 267.349 342.485 C 279.331 330.445 295.633 323.7 312.619 323.755 L 447.957 323.755 C 453.607 323.768 459.029 321.525 463.019 317.525 L 642.517 138.027 C 644.188 136.376 645.128 134.125 645.128 131.776 C 645.128 129.427 644.188 127.176 642.517 125.525 C 622.475 105.385 622.475 72.834 642.517 52.693 L 676.352 18.859 C 688.335 6.826 704.639 0.095 721.621 0.171 C 738.731 0.171 754.816 6.827 766.891 18.859 L 1005.227 257.195 C 1030.188 282.196 1030.188 322.689 1005.227 347.691 L 971.392 381.525 C 961.76 391.206 948.654 396.63 934.997 396.587 C 921.216 396.587 908.288 391.253 898.56 381.525 C 896.908 379.875 894.666 378.953 892.331 378.965 C 889.996 378.953 887.753 379.875 886.101 381.525 L 706.603 561.024 C 702.596 565.027 700.354 570.464 700.373 576.128 L 700.373 711.467 C 700.373 728.576 693.717 744.619 681.643 756.736 L 660.309 778.069 C 648.235 790.144 632.192 796.757 615.04 796.757 C 597.888 796.757 581.845 790.101 569.771 778.069 L 423.04 631.339 L 36.48 1017.941 C 32.384 1021.844 26.948 1024.028 21.291 1024.043 Z" style="stroke: rgb(0, 0, 0); fill: rgb(0, 0, 0);"/>
</svg>