<?xml version="1.0" encoding="utf-8"?>
<svg class="svg-icon" style="width: 1em; height: 1em;vertical-align: middle;fill: currentColor;overflow: hidden;" viewBox="0 0 1024 1024" version="1.1" xmlns="http://www.w3.org/2000/svg">
  <path d="M21.290667 1024.042667a21.333333 21.333333 0 0 1-15.104-36.394667l386.56-386.602667-146.730667-146.730666a64.042667 64.042667 0 0 1 0-90.496l21.333333-21.333334a63.573333 63.573333 0 0 1 45.269334-18.730666h135.338666a21.205333 21.205333 0 0 0 15.061334-6.229334l179.498666-179.498666a8.789333 8.789333 0 0 0 0-12.501334 51.626667 51.626667 0 0 1 0-72.832l33.834667-33.834666a63.488 63.488 0 0 1 45.269333-18.688c17.109333 0 33.194667 6.656 45.269334 18.688l238.336 238.336a64.042667 64.042667 0 0 1 0 90.496l-33.834667 33.834666a51.114667 51.114667 0 0 1-36.394667 15.061334c-13.781333 0-26.709333-5.333333-36.437333-15.061334a8.746667 8.746667 0 0 0-6.229333-2.56 8.746667 8.746667 0 0 0-6.229334 2.56l-179.498666 179.498667a21.248 21.248 0 0 0-6.229334 15.104v135.338667c0 17.109333-6.656 33.152-18.730666 45.269333l-21.333334 21.333333c-12.074667 12.074667-28.117333 18.688-45.269333 18.688s-33.194667-6.656-45.269333-18.688l-146.730667-146.730666-386.56 386.602666a22.101333 22.101333 0 0 1-15.189333 6.101334zM312.618667 366.378667a21.376 21.376 0 0 0-15.104 6.229333l-21.333334 21.333333a21.333333 21.333333 0 0 0 0 30.165334l323.669334 323.669333a21.333333 21.333333 0 0 0 30.208 0l21.333333-21.333333a21.504 21.504 0 0 0 6.229333-15.104V576c0-17.109333 6.656-33.152 18.730667-45.269333l179.498667-179.498667a51.2 51.2 0 0 1 36.394666-15.104 51.2 51.2 0 0 1 36.437334 15.104c1.706667 1.706667 3.882667 2.602667 6.272 2.602667a8.533333 8.533333 0 0 0 6.229333-2.602667l33.834667-33.834667a21.333333 21.333333 0 0 0 0-30.165333l-238.336-238.336a21.333333 21.333333 0 0 0-30.208 0l-33.834667 33.834667a8.832 8.832 0 0 0 0 12.501333c20.053333 20.053333 20.096 52.736 0.042667 72.832L493.226667 347.648a63.573333 63.573333 0 0 1-45.226667 18.730667H312.618667z" style="fill: rgb(99, 99, 99);"/>
</svg>