<?xml version="1.0" standalone="no"?>
<!DOCTYPE svg PUBLIC "-//W3C//DTD SVG 20010904//EN"
 "http://www.w3.org/TR/2001/REC-SVG-20010904/DTD/svg10.dtd">
<svg version="1.0" xmlns="http://www.w3.org/2000/svg"
 width="1600.000000pt" height="1600.000000pt" viewBox="0 0 1600.000000 1600.000000"
 preserveAspectRatio="xMidYMid meet">
<metadata>
Created by potrace 1.14, written by Peter Selinger 2001-2017
</metadata>
<g transform="translate(0.000000,1600.000000) scale(0.100000,-0.100000)"
fill="#000000" stroke="none">
<path d="M7826 15029 c-416 -60 -782 -323 -970 -696 -35 -70 -92 -225 -101
-271 -2 -15 -10 -52 -16 -82 -31 -150 -11 -463 38 -600 3 -8 16 -43 28 -77 30
-81 103 -215 162 -294 68 -92 217 -236 303 -294 100 -67 243 -138 335 -166
l75 -24 0 -502 0 -503 -1482 -1 c-816 0 -1517 -2 -1558 -4 -67 -4 -212 -21
-265 -31 -11 -2 -33 -7 -50 -10 -201 -36 -440 -117 -650 -220 -208 -103 -354
-200 -550 -364 -61 -52 -243 -239 -304 -314 -149 -182 -336 -499 -401 -681
-12 -33 -25 -69 -30 -80 -22 -53 -63 -192 -81 -270 -6 -27 -13 -59 -15 -70 -9
-37 -33 -190 -39 -245 -12 -113 -14 -201 -14 -867 l-1 -683 -800 0 -800 0 0
-1920 0 -1920 800 0 800 0 0 -1440 0 -1440 5760 0 5760 0 0 1440 0 1440 800 0
800 0 0 1920 0 1920 -800 0 -800 0 -1 683 c0 375 -2 707 -4 737 -15 293 -92
613 -213 885 -38 85 -122 247 -138 266 -8 8 -14 19 -14 23 0 14 -154 235 -210
300 -300 351 -597 574 -995 746 -136 59 -368 129 -510 154 -16 3 -39 8 -50 10
-47 9 -206 27 -275 31 -41 2 -740 4 -1552 4 l-1478 1 0 503 0 502 76 24 c96
30 258 111 349 176 87 61 235 209 296 295 116 164 179 317 225 545 3 17 7 94
9 172 7 317 -94 606 -293 841 -200 236 -452 383 -757 442 -76 15 -322 20 -399
9z m364 -659 c199 -67 351 -215 415 -405 25 -75 26 -82 30 -187 8 -217 -80
-397 -260 -534 -182 -139 -456 -160 -669 -52 -141 72 -262 216 -316 378 -28
82 -34 236 -14 330 51 239 259 439 507 490 73 15 235 4 307 -20z m3250 -3506
c607 -81 1145 -448 1437 -980 99 -179 174 -387 207 -569 8 -44 18 -96 23 -115
4 -19 9 -1737 10 -3817 l3 -3783 -960 0 -960 0 0 1280 0 1280 -3200 0 -3200 0
0 -1280 0 -1280 -960 0 -960 0 1 3743 c0 2251 4 3772 10 3817 57 460 256 863
577 1174 178 172 355 289 604 400 122 54 375 119 513 132 39 4 72 8 74 10 2 2
1505 3 3340 3 2805 -1 3353 -3 3441 -15z m-9200 -5104 l0 -1280 -480 0 -480 0
0 1280 0 1280 480 0 480 0 0 -1280z m12480 0 l0 -1280 -480 0 -480 0 0 1280 0
1280 480 0 480 0 0 -1280z m-8000 -3200 l0 -960 -640 0 -640 0 0 960 0 960
640 0 640 0 0 -960z m1920 0 l0 -960 -640 0 -640 0 0 960 0 960 640 0 640 0 0
-960z m1920 0 l0 -960 -640 0 -640 0 0 960 0 960 640 0 640 0 0 -960z"/>
<path d="M5789 8956 c-2 -2 -26 -6 -54 -9 -175 -20 -407 -100 -560 -194 -33
-21 -29 -18 -115 -80 -265 -195 -460 -490 -539 -817 -31 -124 -35 -170 -35
-341 0 -147 6 -214 24 -285 5 -19 11 -46 14 -60 16 -88 87 -262 154 -377 200
-343 567 -607 942 -680 131 -25 200 -31 330 -28 146 4 161 5 281 30 550 115
1004 586 1105 1145 18 104 22 159 19 295 -3 156 -9 199 -49 351 -138 518 -580
924 -1121 1029 -77 15 -385 31 -396 21z m284 -652 c281 -53 510 -255 603 -531
37 -108 38 -122 38 -263 -1 -105 -5 -139 -27 -212 -131 -434 -571 -670 -1007
-540 -239 71 -447 281 -524 527 -24 77 -27 102 -31 216 -5 150 26 278 95 405
166 301 512 462 853 398z"/>
<path d="M9865 8944 c-188 -29 -400 -108 -559 -211 -359 -231 -603 -616 -654
-1028 -16 -132 -7 -382 18 -474 5 -20 11 -47 14 -61 18 -101 109 -311 187
-430 193 -297 505 -524 839 -610 93 -24 97 -25 185 -39 64 -9 349 -7 400 3
213 46 364 98 475 164 25 14 57 33 72 42 113 62 299 235 396 367 149 204 232
411 272 683 10 71 5 340 -9 405 -51 253 -131 441 -263 620 -70 95 -237 259
-328 321 -170 117 -370 201 -565 239 -115 23 -358 27 -480 9z m370 -639 c184
-37 365 -151 482 -301 39 -51 105 -176 121 -229 34 -114 40 -158 37 -272 -5
-172 -39 -285 -131 -423 -208 -316 -601 -439 -963 -301 -73 27 -187 101 -246
158 -55 53 -125 136 -125 147 0 5 -9 19 -20 33 -26 33 -77 168 -94 250 -14 63
-15 262 -2 308 3 11 12 43 19 72 33 116 109 244 203 337 114 115 250 188 409
221 59 12 252 12 310 0z"/>
</g>
</svg>
